<svg width="159" height="43" viewBox="0 0 159 43" fill="none" xmlns="http://www.w3.org/2000/svg">
<path d="M22.0535 3C25.6548 3 26.4156 3.04052 28.2552 3.12006C30.3755 3.2206 31.837 3.55977 33.0975 4.061C34.418 4.56074 35.5389 5.26157 36.6388 6.3616C37.7597 7.46162 38.4394 8.58265 38.9601 9.90328C39.4598 11.1639 39.7809 12.6241 39.88 14.7656C39.9805 16.667 40 17.4068 40 21.4092V24.6103C40 28.6127 39.9805 29.3525 39.88 31.2539C39.8454 33.0023 39.5108 34.6605 38.9256 36.1973L38.9586 36.0967C38.4379 37.4174 37.7582 38.5384 36.6583 39.6384C35.5374 40.7594 34.418 41.4393 33.0975 41.96C31.837 42.4597 30.377 42.7809 28.2552 42.8799C26.3541 42.9805 25.5948 43 21.5928 43H18.4117C14.4097 43 13.67 42.9805 11.7493 42.8799C10.0011 42.8454 8.34302 42.5108 6.80647 41.9255L6.907 41.9585C5.522 41.4288 4.34107 40.6469 3.36722 39.6579L3.36572 39.6564C2.36636 38.6779 1.57707 37.4894 1.06689 36.1613L1.04438 36.0937C0.493679 34.659 0.159058 32.9993 0.124545 31.2659V31.2509C0.0450162 29.6872 0 27.8548 0 26.0134C0 25.6743 0.00150022 25.3351 0.00450131 24.9974V25.0485V20.947C0.00450131 17.3453 0.0450162 16.5845 0.124545 14.7446C0.225082 12.6241 0.564204 11.1624 1.04438 9.90178C1.56507 8.58115 2.24481 7.46012 3.36572 6.3601C4.33357 5.35912 5.5175 4.57425 6.84248 4.08051L6.907 4.0595C8.34002 3.50274 9.99812 3.16058 11.7313 3.12006H11.7493C13.5904 3.04052 14.3497 3 17.951 3H22.0535ZM22.094 6.60171H17.912C14.4502 6.60171 13.7105 6.64223 11.9098 6.72177C9.96961 6.80131 8.90873 7.12246 8.20798 7.40159C7.26713 7.76176 6.60689 8.20147 5.90764 8.9023C5.20839 9.60314 4.76723 10.2635 4.4071 11.2029C4.1475 11.9037 3.80688 12.9632 3.72735 14.9247C3.64782 16.7255 3.60731 17.4459 3.60731 20.9275V25.089C3.60731 28.5706 3.64782 29.291 3.72735 31.0918C3.80688 33.0323 4.128 34.0933 4.4071 34.7941C4.76723 35.7351 5.20689 36.3954 5.90764 37.0947C6.6084 37.794 7.26863 38.2352 8.20798 38.5954C8.90873 38.876 9.96811 39.1957 11.9293 39.2752C13.8695 39.3758 14.5703 39.3953 18.8918 39.3953H21.1127C25.4537 39.3953 26.135 39.3758 28.0947 39.2752C30.0349 39.1957 31.0958 38.8745 31.7965 38.5954C32.7374 38.2352 33.3976 37.7955 34.0969 37.0947C34.7961 36.3939 35.2373 35.7336 35.5974 34.7941C35.878 34.0933 36.1976 33.0338 36.2772 31.0918C36.3777 29.1304 36.3972 28.4506 36.3972 24.109V21.9075C36.3972 17.5659 36.3777 16.8651 36.2772 14.9037C36.1976 12.9632 35.8765 11.9022 35.5974 11.2014C35.2583 10.2995 34.7466 9.5296 34.0984 8.9023L34.0969 8.9008C33.4666 8.25099 32.6984 7.73925 31.8385 7.4136L31.7965 7.40009C30.6981 6.98589 29.4287 6.73828 28.1022 6.72027H28.0947C26.5521 6.64223 24.747 6.59721 22.9298 6.59721C22.6357 6.59721 22.3416 6.59871 22.0475 6.60021H22.0925L22.094 6.60171ZM20.0128 12.7246C25.6863 12.7246 30.287 17.3243 30.287 23C30.287 28.6757 25.6878 33.2754 20.0128 33.2754C14.3392 33.2754 9.73853 28.6757 9.73853 23C9.73853 17.3243 14.3377 12.7246 20.0128 12.7246ZM20.0128 16.3263C16.3274 16.3263 13.3398 19.3143 13.3398 23C13.3398 26.6858 16.3274 29.6737 20.0128 29.6737C23.6981 29.6737 26.6857 26.6858 26.6857 23C26.6857 19.3143 23.6981 16.3263 20.0128 16.3263ZM30.6771 9.92279C32.0036 9.92279 33.078 10.9973 33.078 12.3239C33.078 13.6506 32.0036 14.7251 30.6771 14.7251C29.3506 14.7251 28.2763 13.6506 28.2763 12.3239C28.2763 10.9973 29.3506 9.92279 30.6771 9.92279Z" fill="#CFA1A1"/>
<path d="M100.98 9.39899C99.4808 10.1014 97.9811 10.3503 96.2219 10.5796C97.9804 9.62955 99.2194 8.20659 99.7169 6.31098C98.2103 7.17691 96.4545 7.83696 94.5844 8.19572L94.4794 8.21289C92.9315 6.7729 90.8171 5.87658 88.4831 5.84912L88.4771 5.84913C84.2171 5.85352 80.4813 9.42152 80.4857 13.6866C80.4865 14.3874 80.4869 14.8623 80.7469 15.3354C73.8798 15.0894 67.8152 12.0263 63.7724 7.33605L63.7394 7.29628C63.1029 8.32908 62.7277 9.56917 62.7291 10.8928C62.7292 11.0477 62.7339 11.2027 62.7446 11.3562L62.743 11.3349C62.7968 14.0047 64.2617 16.3391 66.459 17.7016L66.4906 17.7201C65.2306 17.7213 63.9896 17.2492 62.7291 16.7757C62.733 20.5673 65.4962 23.6537 69.2364 24.3508C68.4971 24.5975 67.7366 24.5983 66.9971 24.599C66.4976 24.5996 65.9966 24.6001 65.4969 24.3546C66.5006 27.4429 69.503 29.8098 73.2619 29.8059C70.5641 31.8772 67.0914 33.1319 63.31 33.1358C63.2035 33.1359 63.097 33.1346 62.9905 33.1333L63.007 33.1332L61.0075 33.1353C64.5572 35.277 68.8649 36.5805 73.485 36.6667L73.5105 36.6667C88.5103 36.6512 96.7585 24.7959 96.748 14.5967L96.747 13.6485C98.4663 12.5236 99.8839 11.1047 100.947 9.45873L100.983 9.39899L100.98 9.39899Z" fill="#CFA1A1"/>
<path d="M140.5 0C130.275 0.0374606 122 8.30516 122 18.4986C122 26.2668 126.807 32.9182 133.617 35.6584L133.741 35.7028C133.556 34.2418 133.425 32.0025 133.797 30.3931L135.969 21.1986C135.969 21.1986 135.412 20.0886 135.412 18.4612C135.412 15.8902 136.916 13.9839 138.791 13.9839C140.369 13.9839 141.149 15.1674 141.149 16.5742C141.149 18.1656 140.128 20.5326 139.589 22.7344C139.144 24.5839 140.518 26.0823 142.356 26.0823C145.66 26.0823 148.186 22.6234 148.186 17.6287C148.186 13.1889 144.993 10.1185 140.426 10.1185C140.32 10.113 140.198 10.1102 140.074 10.1102C135.633 10.1102 132.035 13.6967 132.035 18.1198C132.035 18.1226 132.035 18.1254 132.035 18.1282C132.035 19.7196 132.648 21.4205 133.41 22.346C133.559 22.5305 133.577 22.697 133.521 22.8829L133.002 24.9738C132.928 25.3067 132.723 25.3997 132.389 25.2332C130.05 24.1413 128.602 20.7934 128.602 18.056C128.602 12.2288 132.872 6.88304 140.893 6.88304C147.316 6.88304 152.348 11.4338 152.348 17.5565C152.348 23.9387 148.3 29.0625 142.694 29.0625C140.838 29.0625 139.056 28.0816 138.461 26.9356L137.292 31.3199C136.692 33.1749 135.911 34.7857 134.941 36.2633L134.989 36.1856C136.618 36.7017 138.492 37 140.435 37C150.689 37 159 28.717 159 18.5014C159 8.30793 150.726 0.0402353 140.506 0.00277466H140.501L140.5 0Z" fill="#CFA1A1"/>
</svg>
